# xmcd CD database file
# Copyright (C) 1997 Ti Kan
# 
# Track frame offsets:
#     150
#     20515
#     41045
#     67637
#     84877
# 
# Disc length: 1403 seconds
# 
# Revision: 1
# Processed by: cddbd v1.4b41PL1 Copyright (c) Steve Scherf et al.
# Submitted via: DiscPlay 4.0.4
# 
DISCID=2e057905
DTITLE=Lighthouse Family - Introducing
DYEAR=1900
DGENRE=
TTITLE0=Raincloud.
TTITLE1=Lifted
TTITLE2=Let it all change.
TTITLE3=Ocean drive.
TTITLE4=Question of faith.
EXTD=
EXTT0=
EXTT1=
EXTT2=
EXTT3=
EXTT4=
PLAYORDER=
